<svg xmlns="http://www.w3.org/2000/svg" viewBox="0 0 800 222"><style>.st0{display:none;} .st1{display:inline;} .st2{fill:#FFFFFF;} .st3{fill:none;stroke:#9882CE;stroke-width:4;stroke-miterlimit:10;} .st4{fill:#B3E3FF;stroke:#404040;stroke-width:4;stroke-miterlimit:10;} .st5{fill:#FFFFFF;stroke:#404040;stroke-width:4;stroke-miterlimit:10;} .st6{fill:none;stroke:#404040;stroke-width:4;stroke-linecap:round;stroke-linejoin:round;stroke-miterlimit:10;} .st7{fill:#B18BE8;stroke:#404040;stroke-width:4;stroke-linecap:round;stroke-linejoin:round;stroke-miterlimit:10;} .st8{fill:#404040;} .st9{fill:none;stroke:#404040;stroke-width:4;stroke-miterlimit:10;} .st10{fill:#B18BE8;stroke:#404040;stroke-width:4;stroke-miterlimit:10;} .st11{fill:#4ED1A1;stroke:#404040;stroke-width:4;stroke-miterlimit:10;} .st12{fill:none;stroke:#CCCCCC;stroke-width:7;stroke-linecap:round;stroke-linejoin:round;stroke-miterlimit:10;} .st13{fill:#FFFFFF;stroke:#CCCCCC;stroke-width:7;stroke-linecap:round;stroke-linejoin:round;stroke-miterlimit:10;} .st14{fill:none;stroke:#404040;stroke-width:7;stroke-miterlimit:10;} .st15{fill:#B3E3FF;stroke:#404040;stroke-width:7;stroke-miterlimit:10;} .st16{fill:#CCCCCC;} .st17{fill:#FFFFFF;stroke:#404040;stroke-width:4;stroke-linejoin:round;stroke-miterlimit:10;} .st18{fill:#FFFFFF;stroke:#404040;stroke-width:4;stroke-linecap:round;stroke-linejoin:round;stroke-miterlimit:10;} .st19{fill:#B3E3FF;stroke:#404040;stroke-width:4;stroke-linejoin:round;stroke-miterlimit:10;} .st20{fill:none;stroke:#CCCCCC;stroke-linecap:round;stroke-linejoin:round;stroke-miterlimit:10;} .st21{fill:#999999;} .st22{fill:#4ED1A1;stroke:#404040;stroke-width:4;stroke-linecap:round;stroke-linejoin:round;stroke-miterlimit:10;} .st23{fill:#4CD3D6;stroke:#404040;stroke-width:4;stroke-linejoin:round;stroke-miterlimit:10;} .st24{fill:none;stroke:#59AFE1;stroke-width:4;stroke-miterlimit:10;} .st25{fill:#59AFE1;stroke:#404040;stroke-width:4;stroke-linejoin:round;stroke-miterlimit:10;} .st26{fill:#FFFFFF;stroke:#59AFE1;stroke-width:4;stroke-miterlimit:10;} .st27{fill:#B3E3FF;stroke:#404040;stroke-width:4;stroke-linecap:round;stroke-linejoin:round;stroke-miterlimit:10;} .st28{fill:#FC8363;stroke:#404040;stroke-width:4;stroke-linecap:round;stroke-linejoin:round;stroke-miterlimit:10;} .st29{fill:#CCCCCC;stroke:#404040;stroke-width:4;stroke-miterlimit:10;} .st30{fill:#FFFFFF;stroke:#6693ED;stroke-width:4;stroke-miterlimit:10;} .st31{fill:none;stroke:#A97CDD;stroke-width:4;stroke-linecap:round;stroke-linejoin:round;stroke-miterlimit:10;} .st32{fill:none;stroke:#B3E3FF;stroke-width:4;stroke-linecap:round;stroke-linejoin:round;stroke-miterlimit:10;} .st33{fill:none;stroke:#4ED1A1;stroke-width:4;stroke-linecap:round;stroke-miterlimit:10;} .st34{fill:none;stroke:#4ED1A1;stroke-width:4;stroke-linecap:round;stroke-linejoin:round;stroke-miterlimit:10;} .st35{fill:#E24B88;stroke:#404040;stroke-width:4;stroke-linecap:round;stroke-linejoin:round;stroke-miterlimit:10;} .st36{fill:none;stroke:#DEEFF8;stroke-width:4;stroke-miterlimit:10;} .st37{fill:none;stroke:#CCCCCC;stroke-width:4;stroke-linecap:round;stroke-linejoin:round;} .st38{fill:none;stroke:#CCCCCC;stroke-width:4;stroke-linecap:round;stroke-linejoin:round;stroke-dasharray:0,14.3051;} .st39{fill:none;stroke:#CCCCCC;stroke-width:4;stroke-linecap:round;stroke-linejoin:round;stroke-dasharray:0,14.1689;} .st40{fill:none;stroke:#CCCCCC;stroke-width:4;stroke-linecap:round;stroke-linejoin:round;stroke-dasharray:0,13.9788;} .st41{fill:none;stroke:#CCCCCC;stroke-width:4;stroke-linecap:round;stroke-linejoin:round;stroke-dasharray:0,14.7877;} .st42{fill:none;stroke:#CCCCCC;stroke-width:4;stroke-linecap:round;stroke-linejoin:round;stroke-dasharray:0,14.9632;} .st43{fill:none;stroke:#CCCCCC;stroke-width:4;stroke-linecap:round;stroke-linejoin:round;stroke-dasharray:0,12.543;} .st44{fill:none;stroke:#CCCCCC;stroke-width:4;stroke-linecap:round;stroke-linejoin:round;stroke-dasharray:0,13.6844;} .st45{fill:none;stroke:#CCCCCC;stroke-width:4;stroke-linecap:round;stroke-linejoin:round;stroke-dasharray:0,13.7717;} .st46{fill:none;stroke:#CCCCCC;stroke-width:4;stroke-linecap:round;stroke-linejoin:round;stroke-dasharray:0,13.6492;} .st47{fill:none;stroke:#CCCCCC;stroke-width:4;stroke-linecap:round;stroke-linejoin:round;stroke-dasharray:0,13.907;} .st48{fill:#4CD3D6;stroke:#404040;stroke-width:4;stroke-linecap:round;stroke-linejoin:round;stroke-miterlimit:10;} .st49{fill:none;stroke:#CCCCCC;stroke-width:4;stroke-linecap:round;stroke-linejoin:round;stroke-dasharray:0,14.9858;} .st50{fill:none;stroke:#CCCCCC;stroke-width:4;stroke-linecap:round;stroke-linejoin:round;stroke-dasharray:0,14.0118;} .st51{fill:none;stroke:#CCCCCC;stroke-width:4;stroke-linecap:round;stroke-linejoin:round;stroke-dasharray:0,14.1243;} .st52{fill:none;} .st53{fill:#FFFFFF;stroke:#404040;stroke-width:7;stroke-linecap:round;stroke-linejoin:round;stroke-miterlimit:10;} .st54{fill:#59AFE1;stroke:#404040;stroke-width:7;stroke-linejoin:round;stroke-miterlimit:10;} .st55{fill:#E24B88;stroke:#404040;stroke-width:7;stroke-linecap:round;stroke-linejoin:round;stroke-miterlimit:10;} .st56{fill:none;stroke:#404040;stroke-width:7;stroke-linecap:round;stroke-linejoin:round;stroke-miterlimit:10;} .st57{fill:none;stroke:#CCCCCC;stroke-width:4;stroke-linecap:round;stroke-linejoin:round;stroke-miterlimit:10;} .st58{fill:#FFFFFF;stroke:#CCCCCC;stroke-width:4;stroke-linecap:round;stroke-linejoin:round;stroke-miterlimit:10;} .st59{fill:#F5F5F5;} .st60{fill:#3873AE;} .st61{fill:#75706C;} .st62{fill:none;stroke:#B3E3FF;stroke-width:4;stroke-miterlimit:10;} .st63{fill:#6F6F6F;} .st64{fill:none;stroke:#6F6F6F;stroke-width:2;stroke-miterlimit:10;} .st65{fill:none;stroke:#6F6F6F;stroke-width:3;stroke-miterlimit:10;} .st66{fill:#FFFFFF;stroke:#404040;stroke-width:6;stroke-miterlimit:10;} .st67{fill:#B3E3FF;stroke:#404040;stroke-width:6;stroke-miterlimit:10;}</style><g id="workflow_x5F_5"><path class="st8" d="M74.3,9.7c-0.1-0.8-0.8-1.8-2.2-1.8c-1.2,0-2.1,0.8-2.1,1.8c0,0.8,0.5,1.4,1.4,1.5l1.6,0.3 c1.8,0.4,2.8,1.5,2.8,3c0,1.6-1.4,3.1-3.7,3.1c-2.6,0-3.8-1.6-4-3.2l1.4-0.5c0.1,1.2,0.9,2.3,2.5,2.3c1.5,0,2.2-0.8,2.2-1.7 c0-0.8-0.5-1.4-1.6-1.7l-1.5-0.3c-1.5-0.3-2.6-1.3-2.6-2.9c0-1.7,1.5-3.2,3.5-3.2c2.4,0,3.4,1.5,3.6,2.6L74.3,9.7zM79.7,17.5h-1.4V6.6h1.4v4.5c0.5-0.8,1.4-1,2.2-1c1.7,0,2.6,1.2,2.6,2.9v4.6h-1.4v-4.3c0-1-0.4-1.8-1.7-1.8 c-1.1,0-1.6,0.8-1.7,1.9V17.5zM89.2,13.3l1.9-0.3c0.4-0.1,0.6-0.3,0.6-0.5c0-0.7-0.5-1.3-1.6-1.3c-1,0-1.5,0.6-1.6,1.5l-1.4-0.3 c0.2-1.4,1.4-2.3,3-2.3c2.2,0,3,1.2,3,2.6v3.6c0,0.6,0.1,1,0.1,1.2h-1.4c0-0.2-0.1-0.5-0.1-1c-0.3,0.5-1,1.2-2.3,1.2 c-1.5,0-2.4-1-2.4-2.2C87,14.2,88,13.5,89.2,13.3z M91.7,14.4V14l-2.2,0.3c-0.6,0.1-1,0.4-1,1.1c0,0.5,0.4,1,1.2,1 C90.8,16.5,91.7,15.9,91.7,14.4zM100.1,11.7c-0.2,0-0.4,0-0.6,0c-1.2,0-2,0.6-2,2.2v3.6h-1.4v-7.2h1.4v1.3c0.5-1.1,1.4-1.4,2.2-1.4 c0.2,0,0.4,0,0.5,0V11.7zM108.5,15.4c-0.4,1.3-1.6,2.3-3.2,2.3c-1.9,0-3.6-1.4-3.6-3.9c0-2.3,1.6-3.8,3.4-3.8c2.2,0,3.5,1.5,3.5,3.8 c0,0.2,0,0.4,0,0.5h-5.4c0,1.3,1,2.2,2.2,2.2c1.2,0,1.8-0.6,2-1.5L108.5,15.4z M107.1,13.1c0-1-0.7-1.8-2-1.8 c-1.2,0-1.9,0.9-2,1.8H107.1zM116.2,16.4c-0.3,0.7-1.1,1.3-2.2,1.3c-2.1,0-3.4-1.7-3.4-3.8c0-2,1.4-3.8,3.4-3.8c1.3,0,2,0.6,2.2,1.2V6.6 h1.4v9.5c0,0.7,0.1,1.2,0.1,1.3h-1.4c0-0.2-0.1-0.5-0.1-1V16.4z M114.1,16.4c1.3,0,2.1-1.1,2.1-2.6c0-1.5-0.8-2.5-2.1-2.5 c-1.3,0-2.1,1-2.1,2.5S112.7,16.4,114.1,16.4zM41.8,24.8c2,0,3.2,1.2,3.2,2.9c0,1.1-0.7,2-1.6,2.3c1.2,0.3,1.9,1.4,1.9,2.6c0,1.7-1.3,2.9-3.3,2.9h-3.7 V24.8H41.8z M41.6,29.5c1.2,0,1.9-0.7,1.9-1.7c0-1-0.7-1.7-1.9-1.7h-1.8v3.4H41.6z M41.8,34.2c1.2,0,2-0.7,2-1.7 c0-1-0.6-1.7-1.9-1.7h-2.1v3.4H41.8zM48.6,24.5c0.6,0,1,0.5,1,1c0,0.6-0.4,1-1,1c-0.6,0-1-0.5-1-1C47.6,25,48.1,24.5,48.6,24.5z M47.9,35.5v-7.2 h1.4v7.2H47.9zM54.4,28.2h1.6v1.3h-1.6v3.7c0,0.7,0.3,1,1,1c0.2,0,0.4,0,0.6-0.1v1.2c-0.1,0-0.5,0.1-1,0.1 c-1.2,0-2-0.8-2-2.1v-4h-1.4v-1.3H52c0.8,0,1.1-0.5,1.1-1.1V26h1.3V28.2zM58.6,35.5V24.6h1.4v4.7c0.3-0.6,1.2-1.2,2.4-1.2c2.2,0,3.3,1.7,3.3,3.8c0,2.1-1.2,3.8-3.4,3.8 c-1.1,0-1.9-0.5-2.3-1.2v1H58.6z M62.1,29.3c-1.2,0-2.1,1-2.1,2.5c0,1.6,0.9,2.6,2.1,2.6c1.3,0,2.1-1,2.1-2.6 C64.2,30.3,63.4,29.3,62.1,29.3zM70.7,35.7c-1.7,0-2.7-1.3-2.7-2.9v-4.5h1.4v4.3c0,1,0.4,1.9,1.6,1.9c1.1,0,1.7-0.8,1.7-1.8v-4.3h1.4v5.9 c0,0.6,0,1.1,0.1,1.3h-1.4c0-0.2-0.1-0.6-0.1-0.9C72.5,35.3,71.6,35.7,70.7,35.7zM78.1,31.8c0,1.7,1,2.5,2.2,2.5c1.3,0,1.8-0.9,2-1.5l1.2,0.5c-0.3,1-1.4,2.2-3.3,2.2c-2.1,0-3.6-1.6-3.6-3.8 c0-2.2,1.6-3.8,3.6-3.8c1.9,0,2.9,1.2,3.2,2.3l-1.3,0.5c-0.2-0.7-0.7-1.5-1.9-1.5C79.2,29.3,78.1,30.2,78.1,31.8zM89.4,31.3l3.1,4.2h-1.8l-2.4-3.2l-1,1v2.2H86V24.6h1.4v6.8l3.1-3.2h1.9L89.4,31.3zM100.5,33.4c-0.4,1.3-1.6,2.3-3.2,2.3c-1.9,0-3.6-1.4-3.6-3.9c0-2.3,1.6-3.8,3.4-3.8c2.2,0,3.5,1.5,3.5,3.8 c0,0.2,0,0.4,0,0.5h-5.4c0,1.3,1,2.2,2.2,2.2c1.2,0,1.8-0.6,2-1.5L100.5,33.4z M99.1,31.1c0-1-0.7-1.8-2-1.8 c-1.2,0-1.9,0.9-2,1.8H99.1zM105,28.2h1.6v1.3H105v3.7c0,0.7,0.3,1,1,1c0.2,0,0.4,0,0.6-0.1v1.2c-0.1,0-0.5,0.1-1,0.1 c-1.2,0-2-0.8-2-2.1v-4h-1.4v-1.3h0.4c0.8,0,1.1-0.5,1.1-1.1V26h1.3V28.2zM116.9,31.1h-1.6v4.3h-1.5V24.8h4c2,0,3.3,1.4,3.3,3.2c0,1.5-1,2.7-2.6,3l2.5,4.5h-1.7L116.9,31.1z M117.6,29.8c1.2,0,2-0.7,2-1.8c0-1.1-0.8-1.8-2-1.8h-2.2v3.6H117.6zM129.7,33.4c-0.4,1.3-1.6,2.3-3.2,2.3c-1.9,0-3.6-1.4-3.6-3.9c0-2.3,1.6-3.8,3.4-3.8c2.2,0,3.5,1.5,3.5,3.8 c0,0.2,0,0.4,0,0.5h-5.4c0,1.3,1,2.2,2.2,2.2c1.2,0,1.8-0.6,2-1.5L129.7,33.4z M128.3,31.1c0-1-0.7-1.8-2-1.8 c-1.2,0-1.9,0.9-2,1.8H128.3zM132.3,38.3V28.2h1.4v1.1c0.4-0.7,1.2-1.3,2.4-1.3c2.2,0,3.3,1.7,3.3,3.8c0,2.1-1.2,3.8-3.4,3.8 c-1.1,0-1.9-0.5-2.3-1.2v3.8H132.3z M135.8,29.3c-1.3,0-2.1,1.1-2.1,2.5c0,1.5,0.9,2.6,2.1,2.6c1.3,0,2.1-1.1,2.1-2.6 C138,30.4,137.1,29.3,135.8,29.3zM148.7,31.8c0,2.2-1.5,3.8-3.7,3.8s-3.7-1.6-3.7-3.8c0-2.2,1.5-3.8,3.7-3.8S148.7,29.7,148.7,31.8z M147.3,31.8c0-1.7-1.1-2.6-2.2-2.6s-2.2,0.9-2.2,2.6c0,1.7,1.1,2.6,2.2,2.6S147.3,33.5,147.3,31.8zM687.3,9.7c-0.1-0.8-0.8-1.8-2.2-1.8c-1.2,0-2.1,0.8-2.1,1.8c0,0.8,0.5,1.4,1.4,1.5l1.6,0.3 c1.8,0.4,2.8,1.5,2.8,3c0,1.6-1.4,3.1-3.7,3.1c-2.6,0-3.8-1.6-4-3.2l1.4-0.5c0.1,1.2,0.9,2.3,2.5,2.3c1.5,0,2.2-0.8,2.2-1.7 c0-0.8-0.5-1.4-1.6-1.7l-1.5-0.3c-1.5-0.3-2.6-1.3-2.6-2.9c0-1.7,1.5-3.2,3.5-3.2c2.4,0,3.4,1.5,3.6,2.6L687.3,9.7zM692.7,17.5h-1.4V6.6h1.4v4.5c0.5-0.8,1.4-1,2.2-1c1.7,0,2.6,1.2,2.6,2.9v4.6H696v-4.3c0-1-0.4-1.8-1.7-1.8 c-1.1,0-1.6,0.8-1.7,1.9V17.5zM702.2,13.3l1.9-0.3c0.4-0.1,0.6-0.3,0.6-0.5c0-0.7-0.5-1.3-1.6-1.3c-1,0-1.5,0.6-1.6,1.5l-1.4-0.3 c0.2-1.4,1.4-2.3,3-2.3c2.2,0,3,1.2,3,2.6v3.6c0,0.6,0.1,1,0.1,1.2h-1.4c0-0.2-0.1-0.5-0.1-1c-0.3,0.5-1,1.2-2.3,1.2 c-1.5,0-2.4-1-2.4-2.2C700,14.2,700.9,13.5,702.2,13.3z M704.7,14.4V14l-2.2,0.3c-0.6,0.1-1,0.4-1,1.1c0,0.5,0.4,1,1.2,1 C703.8,16.5,704.7,15.9,704.7,14.4zM713,11.7c-0.2,0-0.4,0-0.6,0c-1.2,0-2,0.6-2,2.2v3.6H709v-7.2h1.4v1.3c0.5-1.1,1.4-1.4,2.2-1.4 c0.2,0,0.4,0,0.5,0V11.7zM721.5,15.4c-0.4,1.3-1.6,2.3-3.2,2.3c-1.9,0-3.6-1.4-3.6-3.9c0-2.3,1.6-3.8,3.4-3.8c2.2,0,3.5,1.5,3.5,3.8 c0,0.2,0,0.4,0,0.5h-5.4c0,1.3,1,2.2,2.2,2.2c1.2,0,1.8-0.6,2-1.5L721.5,15.4z M720.1,13.1c0-1-0.7-1.8-2-1.8 c-1.2,0-1.9,0.9-2,1.8H720.1zM729.2,16.4c-0.3,0.7-1.1,1.3-2.2,1.3c-2.1,0-3.4-1.7-3.4-3.8c0-2,1.4-3.8,3.4-3.8c1.3,0,2,0.6,2.2,1.2V6.6 h1.4v9.5c0,0.7,0.1,1.2,0.1,1.3h-1.4c0-0.2-0.1-0.5-0.1-1V16.4z M727.1,16.4c1.3,0,2.1-1.1,2.1-2.6c0-1.5-0.8-2.5-2.1-2.5 c-1.3,0-2.1,1-2.1,2.5S725.7,16.4,727.1,16.4zM654.7,24.8c2,0,3.2,1.2,3.2,2.9c0,1.1-0.7,2-1.6,2.3c1.2,0.3,1.9,1.4,1.9,2.6c0,1.7-1.3,2.9-3.3,2.9h-3.7 V24.8H654.7z M654.6,29.5c1.2,0,1.9-0.7,1.9-1.7c0-1-0.7-1.7-1.9-1.7h-1.8v3.4H654.6z M654.8,34.2c1.2,0,2-0.7,2-1.7 c0-1-0.6-1.7-1.9-1.7h-2.1v3.4H654.8zM661.6,24.5c0.6,0,1,0.5,1,1c0,0.6-0.4,1-1,1c-0.6,0-1-0.5-1-1C660.6,25,661,24.5,661.6,24.5z M660.9,35.5 v-7.2h1.4v7.2H660.9zM667.3,28.2h1.6v1.3h-1.6v3.7c0,0.7,0.3,1,1,1c0.2,0,0.4,0,0.6-0.1v1.2c-0.1,0-0.5,0.1-1,0.1 c-1.2,0-2-0.8-2-2.1v-4h-1.4v-1.3h0.4c0.8,0,1.1-0.5,1.1-1.1V26h1.3V28.2zM671.5,35.5V24.6h1.4v4.7c0.3-0.6,1.2-1.2,2.4-1.2c2.2,0,3.3,1.7,3.3,3.8c0,2.1-1.2,3.8-3.4,3.8 c-1.1,0-1.9-0.5-2.3-1.2v1H671.5z M675,29.3c-1.2,0-2.1,1-2.1,2.5c0,1.6,0.9,2.6,2.1,2.6c1.3,0,2.1-1,2.1-2.6 C677.2,30.3,676.4,29.3,675,29.3zM683.7,35.7c-1.7,0-2.7-1.3-2.7-2.9v-4.5h1.4v4.3c0,1,0.4,1.9,1.6,1.9c1.1,0,1.7-0.8,1.7-1.8v-4.3h1.4v5.9 c0,0.6,0,1.1,0.1,1.3h-1.4c0-0.2-0.1-0.6-0.1-0.9C685.5,35.3,684.6,35.7,683.7,35.7zM691.1,31.8c0,1.7,1,2.5,2.2,2.5c1.3,0,1.8-0.9,2-1.5l1.2,0.5c-0.3,1-1.4,2.2-3.3,2.2 c-2.1,0-3.6-1.6-3.6-3.8c0-2.2,1.6-3.8,3.6-3.8c1.9,0,2.9,1.2,3.2,2.3l-1.3,0.5c-0.2-0.7-0.7-1.5-1.9-1.5 C692.1,29.3,691.1,30.2,691.1,31.8zM702.3,31.3l3.1,4.2h-1.8l-2.4-3.2l-1,1v2.2H699V24.6h1.4v6.8l3.1-3.2h1.9L702.3,31.3zM713.5,33.4c-0.4,1.3-1.6,2.3-3.2,2.3c-1.9,0-3.6-1.4-3.6-3.9c0-2.3,1.6-3.8,3.4-3.8c2.2,0,3.5,1.5,3.5,3.8 c0,0.2,0,0.4,0,0.5h-5.4c0,1.3,1,2.2,2.2,2.2c1.2,0,1.8-0.6,2-1.5L713.5,33.4z M712.1,31.1c0-1-0.7-1.8-2-1.8 c-1.2,0-1.9,0.9-2,1.8H712.1zM718,28.2h1.6v1.3H718v3.7c0,0.7,0.3,1,1,1c0.2,0,0.4,0,0.6-0.1v1.2c-0.1,0-0.5,0.1-1,0.1 c-1.2,0-2-0.8-2-2.1v-4h-1.4v-1.3h0.4c0.8,0,1.1-0.5,1.1-1.1V26h1.3V28.2zM729.9,31.1h-1.6v4.3h-1.5V24.8h4c2,0,3.3,1.4,3.3,3.2c0,1.5-1,2.7-2.6,3l2.5,4.5h-1.7L729.9,31.1z M730.5,29.8c1.2,0,2-0.7,2-1.8c0-1.1-0.8-1.8-2-1.8h-2.2v3.6H730.5zM742.7,33.4c-0.4,1.3-1.6,2.3-3.2,2.3c-1.9,0-3.6-1.4-3.6-3.9c0-2.3,1.6-3.8,3.4-3.8c2.2,0,3.5,1.5,3.5,3.8 c0,0.2,0,0.4,0,0.5h-5.4c0,1.3,1,2.2,2.2,2.2c1.2,0,1.8-0.6,2-1.5L742.7,33.4z M741.3,31.1c0-1-0.7-1.8-2-1.8 c-1.2,0-1.9,0.9-2,1.8H741.3zM745.3,38.3V28.2h1.4v1.1c0.4-0.7,1.2-1.3,2.4-1.3c2.2,0,3.3,1.7,3.3,3.8c0,2.1-1.2,3.8-3.4,3.8 c-1.1,0-1.9-0.5-2.3-1.2v3.8H745.3z M748.8,29.3c-1.3,0-2.1,1.1-2.1,2.5c0,1.5,0.9,2.6,2.1,2.6c1.3,0,2.1-1.1,2.1-2.6 C750.9,30.4,750.1,29.3,748.8,29.3zM761.7,31.8c0,2.2-1.5,3.8-3.7,3.8s-3.7-1.6-3.7-3.8c0-2.2,1.5-3.8,3.7-3.8S761.7,29.7,761.7,31.8z M760.3,31.8c0-1.7-1.1-2.6-2.2-2.6s-2.2,0.9-2.2,2.6c0,1.7,1.1,2.6,2.2,2.6S760.3,33.5,760.3,31.8z"/><path class="st6" d="M193.4,189.5h-79.2c-11.6,0-21-9.4-21-21v-38.9M509.8,189.5h-79.2c-11.6,0-21-9.4-21-21v-38.9M288.9,189.5h79.2c11.6,0,21-9.4,21-21v-38.9"/><path id="repo1_173_" class="st4" d="M61.3,101.7c0-6.3,14.2-11.3,31.8-11.3s31.8,5.1,31.8,11.3 M61.3,101.7v14.1 c0,1.5,0.9,3,2.4,4.3c4.7,4.1,16.2,7,29.5,7c13.3,0,24.7-2.9,29.5-7c1.5-1.3,2.4-2.8,2.4-4.3v-14.1"/><path class="st26" d="M125,101.7c0,6.3-14.2,11.3-31.8,11.3s-31.8-5.1-31.8-11.3c0-6.3,14.2-11.3,31.8-11.3S125,95.4,125,101.7z"/><path id="repo1_172_" class="st4" d="M61.3,87.6c0-6.3,14.2-11.3,31.8-11.3S125,81.3,125,87.6 M61.3,87.6v14.1c0,1.5,0.9,3,2.4,4.3 c4.7,4.1,16.2,7,29.5,7c13.3,0,24.7-2.9,29.5-7c1.5-1.3,2.4-2.8,2.4-4.3V87.6"/><path class="st26" d="M125,87.6c0,6.3-14.2,11.3-31.8,11.3s-31.8-5.1-31.8-11.3c0-6.3,14.2-11.3,31.8-11.3S125,81.3,125,87.6z"/><path id="repo1_171_" class="st4" d="M61.3,73.5c0-6.3,14.2-11.3,31.8-11.3S125,67.2,125,73.5 M61.3,73.5v14.1c0,1.5,0.9,3,2.4,4.3 c4.7,4.1,16.2,7,29.5,7c13.3,0,24.7-2.9,29.5-7c1.5-1.3,2.4-2.8,2.4-4.3V73.5"/><path class="st5" d="M125,73.5c0,6.3-14.2,11.3-31.8,11.3s-31.8-5.1-31.8-11.3c0-6.3,14.2-11.3,31.8-11.3S125,67.2,125,73.5z"/><path class="st7" d="M193.4 164.5H289.4V214.5H193.4z"/><path class="st8" d="M214.9,195.5v-10.6h6.5v1.4h-5v3.4h4.5v1.4h-4.5v4.5H214.9zM229.6,193.4c-0.4,1.3-1.6,2.3-3.2,2.3c-1.9,0-3.6-1.4-3.6-3.9c0-2.3,1.6-3.8,3.4-3.8c2.2,0,3.5,1.5,3.5,3.8 c0,0.2,0,0.4,0,0.5h-5.4c0,1.3,1,2.2,2.2,2.2c1.2,0,1.8-0.6,2-1.5L229.6,193.4z M228.1,191.1c0-1-0.7-1.8-2-1.8 c-1.2,0-1.9,0.9-2,1.8H228.1zM233.9,191.4l1.9-0.3c0.4-0.1,0.6-0.3,0.6-0.5c0-0.7-0.5-1.3-1.6-1.3c-1,0-1.5,0.6-1.6,1.5l-1.4-0.3 c0.2-1.4,1.4-2.3,3-2.3c2.2,0,3,1.2,3,2.6v3.6c0,0.6,0.1,1,0.1,1.2h-1.4c0-0.2-0.1-0.5-0.1-1c-0.3,0.5-1,1.2-2.3,1.2 c-1.5,0-2.4-1-2.4-2.2C231.7,192.3,232.7,191.5,233.9,191.4z M236.4,192.4v-0.3l-2.2,0.3c-0.6,0.1-1.1,0.4-1.1,1.1 c0,0.5,0.4,1,1.2,1C235.5,194.5,236.4,194,236.4,192.4zM242.6,188.3h1.6v1.3h-1.6v3.8c0,0.7,0.3,1,1,1c0.2,0,0.4,0,0.6-0.1v1.2c-0.1,0-0.5,0.1-1,0.1 c-1.2,0-2-0.8-2-2.1v-4h-1.4v-1.3h0.4c0.8,0,1.1-0.5,1.1-1.1V186h1.3V188.3zM249.5,195.7c-1.7,0-2.7-1.3-2.7-2.9v-4.5h1.4v4.3c0,1,0.4,1.9,1.6,1.9c1.1,0,1.7-0.8,1.7-1.8v-4.3h1.4v5.9 c0,0.6,0,1.1,0.1,1.3h-1.4c0-0.2-0.1-0.6-0.1-0.9C251.2,195.4,250.3,195.7,249.5,195.7zM260.1,189.7c-0.2,0-0.4,0-0.6,0c-1.2,0-2,0.6-2,2.2v3.6h-1.4v-7.2h1.4v1.3c0.5-1.1,1.4-1.4,2.2-1.4 c0.2,0,0.4,0,0.5,0V189.7zM268.5,193.4c-0.4,1.3-1.6,2.3-3.2,2.3c-1.9,0-3.6-1.4-3.6-3.9c0-2.3,1.6-3.8,3.4-3.8c2.2,0,3.5,1.5,3.5,3.8 c0,0.2,0,0.4,0,0.5h-5.4c0,1.3,1,2.2,2.2,2.2c1.2,0,1.8-0.6,2-1.5L268.5,193.4z M267.1,191.1c0-1-0.7-1.8-2-1.8 c-1.2,0-1.9,0.9-2,1.8H267.1z"/><path class="st6" d="M331.4,190.8M605.9,189.5h79.2c11.6,0,21-9.4,21-21v-38.9M648.4,190.8M520.4,190.8M520.4,190.8"/><path id="repo1_170_" class="st4" d="M674.3,101.9c0-6.3,14.2-11.3,31.8-11.3c17.6,0,31.8,5.1,31.8,11.3 M674.3,101.9V116 c0,1.5,0.9,3,2.4,4.3c4.8,4.1,16.1,7,29.5,7c13.3,0,24.7-2.9,29.5-7c1.5-1.3,2.4-2.8,2.4-4.3v-14.1"/><path class="st26" d="M674.3,101.9c0,6.3,14.2,11.3,31.8,11.3c17.6,0,31.8-5.1,31.8-11.3c0-6.3-14.2-11.3-31.8-11.3 C688.5,90.6,674.3,95.6,674.3,101.9z"/><path id="repo1_169_" class="st4" d="M674.3,87.8c0-6.3,14.2-11.3,31.8-11.3c17.6,0,31.8,5.1,31.8,11.3 M674.3,87.8v14.1 c0,1.5,0.9,3,2.4,4.3c4.8,4.1,16.1,7,29.5,7c13.3,0,24.7-2.9,29.5-7c1.5-1.3,2.4-2.8,2.4-4.3V87.8"/><path class="st26" d="M674.3,87.8c0,6.3,14.2,11.3,31.8,11.3c17.6,0,31.8-5.1,31.8-11.3c0-6.3-14.2-11.3-31.8-11.3 C688.5,76.5,674.3,81.5,674.3,87.8z"/><path id="repo1_168_" class="st4" d="M674.3,73.7c0-6.3,14.2-11.3,31.8-11.3c17.6,0,31.8,5.1,31.8,11.3 M674.3,73.7v14.1 c0,1.5,0.9,3,2.4,4.3c4.8,4.1,16.1,7,29.5,7c13.3,0,24.7-2.9,29.5-7c1.5-1.3,2.4-2.8,2.4-4.3V73.7"/><path class="st5" d="M674.3,73.7c0,6.3,14.2,11.3,31.8,11.3c17.6,0,31.8-5.1,31.8-11.3c0-6.3-14.2-11.3-31.8-11.3 C688.5,62.4,674.3,67.4,674.3,73.7z"/><path class="st22" d="M509.9 165.8H605.9V215.8H509.9z"/><path class="st8" d="M529.2,196.8v-10.6h3.7c2.7,0,5.1,1.8,5.1,5.3c0,3.5-2.4,5.3-5.1,5.3H529.2z M532.9,195.5c2,0,3.6-1.3,3.6-4 c0-2.7-1.6-4-3.6-4h-2.2v8H532.9zM546.9,194.8c-0.4,1.3-1.6,2.3-3.2,2.3c-1.9,0-3.6-1.4-3.6-3.9c0-2.3,1.6-3.8,3.4-3.8c2.2,0,3.5,1.5,3.5,3.8 c0,0.2,0,0.4,0,0.5h-5.4c0,1.3,1,2.2,2.2,2.2c1.2,0,1.8-0.6,2-1.5L546.9,194.8z M545.5,192.5c0-1-0.7-1.8-2-1.8 c-1.2,0-1.9,0.9-2,1.8H545.5zM552.6,196.8h-1.4l-2.9-7.2h1.6l2.1,5.6l2.1-5.6h1.5L552.6,196.8zM563.7,194.8c-0.4,1.3-1.6,2.3-3.2,2.3c-1.9,0-3.6-1.4-3.6-3.9c0-2.3,1.6-3.8,3.4-3.8c2.2,0,3.5,1.5,3.5,3.8 c0,0.2,0,0.4,0,0.5h-5.4c0,1.3,1,2.2,2.2,2.2c1.2,0,1.8-0.6,2-1.5L563.7,194.8z M562.3,192.5c0-1-0.7-1.8-2-1.8 c-1.2,0-1.9,0.9-2,1.8H562.3zM566.3,196.8V186h1.4v10.9H566.3zM577.6,193.2c0,2.2-1.5,3.8-3.7,3.8s-3.7-1.6-3.7-3.8c0-2.2,1.5-3.8,3.7-3.8S577.6,191,577.6,193.2z M576.2,193.2c0-1.7-1.1-2.6-2.2-2.6s-2.2,0.9-2.2,2.6c0,1.7,1.1,2.6,2.2,2.6S576.2,194.9,576.2,193.2zM580.2,199.7v-10.1h1.4v1.1c0.4-0.7,1.2-1.3,2.4-1.3c2.2,0,3.3,1.7,3.3,3.8c0,2.1-1.2,3.8-3.4,3.8 c-1.1,0-1.9-0.5-2.3-1.2v3.8H580.2z M583.7,190.7c-1.3,0-2.1,1.1-2.1,2.5c0,1.5,0.9,2.6,2.1,2.6c1.3,0,2.1-1.1,2.1-2.6 C585.8,191.8,585,190.7,583.7,190.7z"/><circle class="st18" cx="400" cy="80.8" r="49.5"/><path class="st6" d="M400 87.9L400 62.7M390.4 68.6L400 59.1 409.5 68.6M389.3,76.9h-11c-1.7,0-3.1,1.4-3.1,3.1v13.9c0,1.7,1.4,3.1,3.1,3.1h43.3c1.7,0,3.1-1.4,3.1-3.1V80 c0-1.7-1.4-3.1-3.1-3.1h-11"/></g></svg>